<svg xmlns="http://www.w3.org/2000/svg" viewBox="0 0 1400 900"><defs><style>.cls-1{fill:#148cc3;}.cls-2{fill:#2f96d8;}.cls-12,.cls-14,.cls-15,.cls-3{fill:none;stroke-miterlimit:10;}.cls-15,.cls-3{stroke:#f5f5f5;}.cls-3{stroke-width:6px;}.cls-15,.cls-16,.cls-3{opacity:0.6;}.cls-4{fill:#2fa0d8;}.cls-5{fill:#2faad8;}.cls-6{fill:gray;}.cls-7{fill:#2fbbd8;}.cls-8{fill:#3a90f3;}.cls-9{fill:#3cbed8;}.cls-10{fill:#00cbd4;}.cls-11{fill:#2fcad8;}.cls-12,.cls-14{stroke:#666;}.cls-12{stroke-width:2px;}.cls-13{fill:#2fb0d8;}.cls-14{stroke-width:3px;}.cls-16,.cls-18{fill:#f5f5f5;}.cls-17{fill:#999;}.cls-18{opacity:0.5;}</style></defs><g id="レイヤー_2" data-name="レイヤー 2"><g id="レイヤー_1-2" data-name="レイヤー 1"><polygon class="cls-1" points="1340.7 860.36 69.01 860.36 69.01 43.95 1337.59 43.95 1340.7 860.36"/><path class="cls-2" d="M1388.27,879.06c21.9-25.94,10.91-789-14.61-863.13a3.25,3.25,0,0,0-3-2.1,19,19,0,0,0-8.13,1.13c-4.16,1.87-62.39,56.11-62.39,56.11l19.76,758.43,56.15,49.56a15.22,15.22,0,0,0,1.41.59"/><path class="cls-2" d="M22.49,879.06C.39,852.88-11,71.07,14.94,9.35c0,0,6.24-.93,10.4.94S96.05,71.07,96.05,71.07L110.61,829.5,42,879.06a15.22,15.22,0,0,1-1.41.59"/><path class="cls-3" d="M25.61,879.24C3.5,853.06-7.93,71.25,18.06,9.53"/><path class="cls-4" d="M1316.79,756.56l-7.28,3.74-6.24,71.07-10.4,10.29-586-1.9v0h-7.28v0l-586,1.9-10.4-10.29L97,760.3l-7.27-3.74L24.2,787.42l9.36,91.64s8.31,11.23,14.55,15c12.93,6.26,603.25,5.68,655.14,5.61s642.21.65,655.13-5.61c6.24-3.74,16.64-15,16.64-15l7.28-91.64Z"/><polygon class="cls-5" points="1372.94 789.29 1317.83 756.56 1310.55 760.3 1304.31 831.37 1365.66 874.39 1372.94 789.29"/><polygon class="cls-6" points="1303.27 831.37 1364.62 874.39 1362.54 876.26 1301.73 832.89 1303.27 831.37"/><polygon class="cls-7" points="1301.73 832.89 1292.87 841.66 1350.06 885.61 1362.54 876.26 1301.73 832.89"/><polygon class="cls-6" points="1350.06 885.61 1347.98 887.48 1290.55 841.65 1292.87 841.66 1350.06 885.61"/><path class="cls-6" d="M1377.23,879.65s9.23-84.75,7.15-90.36c-1-2.81-2.08-1.87-2.08-1.87L1374,879.06S1374.25,879.31,1377.23,879.65Z"/><path class="cls-4" d="M1371.9,20.62s-10.4-11.22-16.64-15C1341.74-.89,696.49.05,696.49.05S51.23-.89,37.72,5.66c-6.24,3.74-16.64,15-16.64,15L13.8,112.27l65.51,30.86,7.28-3.74,6.24-71.08L103.22,58,696.49,60,1289.75,58l10.4,10.28,6.24,71.08,7.28,3.74,65.51-30.86Z"/><polygon class="cls-8" points="1379.18 112.27 1368.78 110.4 1361.5 25.3 1368.78 20.62 1379.18 112.27"/><polygon class="cls-9" points="13.66 112.26 24.06 110.39 31.34 25.29 20.94 20.61 13.66 112.26"/><polygon class="cls-5" points="24.06 110.39 79.17 143.12 86.45 139.38 92.69 68.31 31.34 25.29 24.06 110.39"/><polygon class="cls-6" points="92.69 68.31 31.34 25.29 33.42 23.42 94.23 66.78 92.69 68.31"/><polygon class="cls-10" points="94.23 66.78 103.08 58.02 45.89 14.07 33.42 23.42 94.23 66.78"/><polygon class="cls-6" points="45.89 14.07 47.97 12.2 105.41 58.03 103.08 58.02 45.89 14.07"/><path class="cls-6" d="M1369.82,13.79s12.48,89,12.48,96.56c0,9.35-3.12,1.92-3.12,1.92l-11.44-98.43A12.68,12.68,0,0,1,1369.82,13.79Z"/><path class="cls-6" d="M1313.67,143.13h7.7c2.7,0,60.23-27.95,60.23-27.95l-2.42-2.91Z"/><path class="cls-8" d="M1361.5,25.3l7.28-4.68-1-4.72s-12.48-11.22-12.48-11.18C1340.7,0,756.33,0,756.33,0l590.61,12.2"/><polygon class="cls-11" points="1378.14 788.35 1371.9 789.29 1316.79 756.56 1378.14 788.35"/><polygon class="cls-5" points="37.88 789.29 92.99 756.56 100.27 760.3 106.51 831.37 45.16 874.39 37.88 789.29"/><polygon class="cls-6" points="106.51 831.37 45.16 874.39 47.24 876.26 108.05 832.89 106.51 831.37"/><polygon class="cls-6" points="59.72 885.61 61.8 887.48 119.23 841.65 116.91 841.66 59.72 885.61"/><line class="cls-12" x1="103.08" y1="58.02" x2="1289.75" y2="58.03"/><line class="cls-12" x1="1292.87" y1="841.66" x2="106.2" y2="841.66"/><line class="cls-12" x1="107.74" y1="832.9" x2="94.23" y2="66.78"/><polygon class="cls-6" points="1353.18 9.4 1351.1 7.53 1287.43 58.03 1289.75 58.03 1353.18 9.4"/><polygon class="cls-6" points="1300.15 68.31 1366.7 21.56 1364.62 19.68 1298.61 66.79 1300.15 68.31"/><polygon class="cls-13" points="1376.06 114.14 1313.67 143.13 1306.39 139.39 1300.15 68.31 1366.7 21.51 1376.06 114.14"/><polygon class="cls-10" points="1298.61 66.79 1289.75 58.03 1352.14 10.33 1364.62 19.68 1298.61 66.79"/><line class="cls-14" x1="1300.67" y1="66.87" x2="1316.27" y2="757.02"/><polygon class="cls-10" points="108.05 832.89 116.91 841.66 59.72 885.61 47.24 876.26 108.05 832.89"/><polygon class="cls-6" points="13.66 112.26 79.17 143.12 24.06 110.39 13.66 112.26"/><polygon class="cls-4" points="1382.3 787.42 1371.9 789.29 1364.62 874.39 1375.02 879.06 1382.3 787.42"/><rect class="cls-15" x="1368.26" y="789.13" height="85.41"/><path class="cls-6" d="M1316.79,756.56h7.69c2.71,0,58.86,30.86,58.86,30.86l-5.2.93Z"/><path class="cls-16" d="M33.56,879.06l11.6-4.67L61.8,887.48l888,12S73.17,902.44,48.11,894C48.11,894,45.1,894,33.56,879.06Z"/><polygon class="cls-9" points="27.48 787.42 37.88 789.29 45.16 874.39 34.76 879.06 27.48 787.42"/><polygon class="cls-16" points="27.48 787.42 37.88 789.29 45.16 874.39 34.76 879.06 27.48 787.42"/><path class="cls-6" d="M32.55,879.65s-9.23-84.75-7.15-90.36c1-2.81,2.08-1.87,2.08-1.87l8.32,91.64S35.53,879.31,32.55,879.65Z"/><path class="cls-6" d="M93,756.56H85.3c-2.71,0-58.86,30.86-58.86,30.86l5.2.93Z"/><polygon class="cls-17" points="31.64 788.35 37.88 789.29 92.99 756.56 31.64 788.35"/><path class="cls-18" d="M20.94,20.61l10.4,4.68L48,12.2,593.39,0S46-.16,37.72,5.66A100.47,100.47,0,0,0,20.94,20.61Z"/></g></g></svg>