<svg xmlns="http://www.w3.org/2000/svg" viewBox="0 0 1400 900"><defs><style>.cls-1{fill:#2f9bd8;}.cls-2,.cls-6{fill:#fff;}.cls-2{opacity:0.3;}.cls-3{fill:none;stroke:#fff;stroke-miterlimit:10;}.cls-4{fill:#2f5ad8;}.cls-5{fill:#1482be;}.cls-6{opacity:0.5;}</style></defs><g id="レイヤー_2" data-name="レイヤー 2"><g id="レイヤー_1-2" data-name="レイヤー 1"><path class="cls-1" d="M1393,873.06s6.36-28.56,6.36-419.39-6.36-431-6.36-431c-3.56-15.77-4.2-17-4.2-17C1370.92,1,699.66,0,699.66,0S29.4,1,11.56,5.71c0,0-1.64,1.19-5.2,17,0,0-6.36,40.18-6.36,431S6.36,873.06,6.36,873.06"/><path class="cls-2" d="M11.56,6.11s-1.64,1.19-5.2,17c0,0-6.36,40.18-6.36,431S6.36,873.46,6.36,873.46"/><path class="cls-3" d="M6.36,873.06c245.7,3.31,1141.9.4,1386.6,0"/><path class="cls-4" d="M1390.49,883.65l2.47-10.59c-244.7.4-1140.9,3.31-1386.6,0l2.47,10.59Z"/><polygon class="cls-5" points="1390.49 883.65 1369.34 894.19 699.66 900 29.98 894.19 8.83 883.65 1390.49 883.65"/><path class="cls-6" d="M1393.35,872.09c9.36-254.2,8.36-626.91,0-839.74"/></g></g></svg>