<svg xmlns="http://www.w3.org/2000/svg" viewBox="0 0 241 241"><defs><style>.cls-1{fill:#fafafa;stroke:#ccc;}.cls-1,.cls-2,.cls-4{stroke-miterlimit:10;}.cls-2,.cls-4{fill:none;stroke-width:2px;}.cls-2{stroke:#4d4d4d;}.cls-3{fill:#ff0a00;}.cls-4{stroke:#ff0a00;}</style></defs><g id="レイヤー_2" data-name="レイヤー 2"><g id="レイヤー_1-2" data-name="レイヤー 1"><rect class="cls-1" x="0.5" y="0.5" width="240" height="240"/><line class="cls-2" x1="199.1" y1="0.5" x2="199.1" y2="240.5"/><line class="cls-2" x1="94.3" y1="0.5" x2="94.3" y2="239.54"/><line class="cls-2" x1="41.9" y1="0.5" x2="41.9" y2="240.5"/><line class="cls-2" x1="94.3" y1="94.1" x2="146.7" y2="94.1"/><line class="cls-2" x1="146.7" y1="115.33" x2="199.1" y2="115.33"/><line class="cls-2" x1="146.7" y1="173.65" x2="199.1" y2="173.65"/><line class="cls-2" x1="94.3" y1="148.63" x2="146.7" y2="148.63"/><ellipse class="cls-3" cx="94.3" cy="234.74" rx="7.2" ry="5.76"/><polyline class="cls-2" points="94.3 240.5 94.3 206.22 41.9 206.22 41.9 57.86 94.3 57.86 94.3 32.8 146.7 32.8 146.7 0.5 146.7 240.5"/><polyline class="cls-4" points="94.3 240.5 94.3 206.22 41.9 206.22 41.9 57.86 94.3 57.86 94.3 32.8 146.7 32.8 146.7 0.5"/></g></g></svg>