<svg xmlns="http://www.w3.org/2000/svg" viewBox="0 0 240 241"><defs><style>.cls-1,.cls-9{fill:#fff;}.cls-1{opacity:0;}.cls-2,.cls-5{fill:#f0dc32;}.cls-2,.cls-3{stroke:#ccc;stroke-miterlimit:10;}.cls-3{fill:#f0fafa;}.cls-4{fill:#ff0a00;}.cls-6{opacity:0.6;}.cls-10,.cls-7{fill:#666;}.cls-8{fill:#26a9ea;}.cls-10{opacity:0.8;font-size:34.91px;font-family:VDL-LogoMaruJr-Regular-83pv-RKSJ-H, VDL-LogoMaru Jr;}</style></defs><g id="レイヤー_2" data-name="レイヤー 2"><g id="レイヤー_1-2" data-name="レイヤー 1"><rect class="cls-1" y="0.5" width="240" height="240"/><rect class="cls-2" x="17.76" y="0.5" width="202.91" height="240" rx="3"/><rect class="cls-3" x="25.4" y="200.14" width="34.91" height="34.91" rx="4"/><rect class="cls-3" x="63.58" y="200.14" width="34.91" height="34.91" rx="4"/><rect class="cls-3" x="101.76" y="200.14" width="34.91" height="34.91" rx="4"/><rect class="cls-3" x="139.94" y="200.14" width="34.91" height="34.91" rx="4"/><rect class="cls-3" x="25.4" y="161.95" width="34.91" height="34.91" rx="4"/><rect class="cls-3" x="63.58" y="161.95" width="34.91" height="34.91" rx="4"/><rect class="cls-3" x="101.76" y="161.95" width="34.91" height="34.91" rx="4"/><rect class="cls-3" x="139.94" y="161.95" width="34.91" height="34.91" rx="4"/><rect class="cls-3" x="25.4" y="123.77" width="34.91" height="34.91" rx="4"/><rect class="cls-3" x="63.58" y="123.77" width="34.91" height="34.91" rx="4"/><rect class="cls-3" x="139.94" y="123.77" width="34.91" height="34.91" rx="4"/><rect class="cls-3" x="25.4" y="85.59" width="34.91" height="34.91" rx="4"/><rect class="cls-3" x="63.58" y="85.59" width="34.91" height="34.91" rx="4"/><rect class="cls-3" x="101.76" y="85.59" width="34.91" height="34.91" rx="4"/><rect class="cls-3" x="139.94" y="85.59" width="34.91" height="34.91" rx="4"/><rect class="cls-3" x="25.4" y="47.41" width="34.91" height="34.91" rx="4"/><rect class="cls-3" x="63.58" y="47.41" width="34.91" height="34.91" rx="4"/><rect class="cls-3" x="101.76" y="47.41" width="34.91" height="34.91" rx="4"/><rect class="cls-3" x="139.94" y="47.41" width="34.91" height="34.91" rx="4"/><rect class="cls-3" x="178.12" y="200.14" width="34.91" height="34.91" rx="4"/><rect class="cls-3" x="178.12" y="161.95" width="34.91" height="34.91" rx="4"/><rect class="cls-3" x="178.12" y="123.77" width="34.91" height="34.91" rx="4"/><rect class="cls-3" x="178.12" y="85.59" width="34.91" height="34.91" rx="4"/><rect class="cls-3" x="178.12" y="47.41" width="34.91" height="34.91" rx="4"/><rect class="cls-3" x="101.76" y="123.77" width="34.91" height="34.91" rx="4"/><circle class="cls-4" cx="119.21" cy="141.23" r="15.27"/><path class="cls-5" d="M111.75,139.3h-3.13c-1.17,0-1.63.44-1.63,1.76v.68h4.35c.19,0,.28.11.28.3v.18a.26.26,0,0,1-.28.3H107v2.82a.27.27,0,0,1-.3.29h-.17a.27.27,0,0,1-.3-.29v-4.28c0-1.73.61-2.54,2.4-2.54h3.13a.27.27,0,0,1,.29.3V139A.27.27,0,0,1,111.75,139.3Z"/><path class="cls-5" d="M118.68,145.63h-.17c-.19,0-.31-.09-.31-.28v-.75c0-1.35-.78-2-2.31-2h-2.13v2.72a.26.26,0,0,1-.29.28h-.18a.26.26,0,0,1-.29-.28v-6.2a.62.62,0,0,1,.62-.64h3.26c1.65,0,2.11,1,2.11,1.87v.43a1.55,1.55,0,0,1-1.29,1.56,2.17,2.17,0,0,1,1.29,2.2v.78C119,145.54,118.87,145.63,118.68,145.63Zm-.48-5.21c0-.59-.35-1.14-1.32-1.14H114a.22.22,0,0,0-.23.22v2.42h3c1,0,1.39-.57,1.39-1.13Z"/><path class="cls-5" d="M125.44,145.6h-3.13c-1.88,0-2.37-.79-2.37-2.44v-2.1c0-1.73.62-2.54,2.41-2.54h3.09a.26.26,0,0,1,.29.3V139a.27.27,0,0,1-.29.31h-3.09c-1.17,0-1.63.43-1.63,1.76v.52h4.39c.19,0,.28.11.28.3v.1c0,.18-.09.31-.28.31h-4.39v.87c0,1.3.34,1.69,1.67,1.69h3a.26.26,0,0,1,.29.3v.15A.27.27,0,0,1,125.44,145.6Z"/><path class="cls-5" d="M132.08,145.6H129c-1.88,0-2.37-.79-2.37-2.44v-2.1c0-1.73.62-2.54,2.41-2.54h3.09a.27.27,0,0,1,.3.3V139a.28.28,0,0,1-.3.31H129c-1.17,0-1.63.43-1.63,1.76v.52h4.39a.27.27,0,0,1,.29.3v.1a.28.28,0,0,1-.29.31h-4.39v.87c0,1.3.34,1.69,1.68,1.69h3a.27.27,0,0,1,.3.3v.15A.28.28,0,0,1,132.08,145.6Z"/><g class="cls-6"><path class="cls-7" d="M43.84,11.61a37.72,37.72,0,0,1,8.55.77c4.35,1.09,6.68,3.3,6.68,6.28,0,4.07-3.21,6.24-10,6.7,8.29.58,12.43,3.14,12.43,7.63,0,3.6-2.9,6-8.6,7a54.39,54.39,0,0,1-9.37.66H29.33v-29Zm-1.3,13.13c5.6,0,8.24-1.86,8.24-5.85a5,5,0,0,0-3.21-5,13,13,0,0,0-5.23-.77H37.1V24.74Zm.26,14.37c7,0,10.26-2,10.26-6.2,0-4.41-3.42-6.62-10.36-6.62H37.1V39.11Z"/><path class="cls-7" d="M68.86,40.66v-29h8.29V40.66Z"/><path class="cls-7" d="M116.52,40.66,88.65,15V40.66H86.16v-29h8.55L116.31,31V11.61h2.49V40.66Z"/><path class="cls-7" d="M162.16,37.21c-3.16,2.52-8.81,3.92-15.85,3.92-13.11,0-20.77-5.31-20.77-14.37,0-9.69,8.28-15.58,21.8-15.58a27,27,0,0,1,14.25,3.57l-4,2.63a12.87,12.87,0,0,0-10.26-4.65c-7.77,0-13.1,5.62-13.1,13.87,0,7.24,5.8,12.63,13.67,12.63a18.26,18.26,0,0,0,6.58-1V29H148.9V27.49h13.26Z"/><path class="cls-7" d="M210.18,26.1c0,9.53-7.61,15-20.93,15s-21-5.58-21-15.11c0-9.1,8.14-14.84,21-14.84S210.18,17,210.18,26.1Zm-32.94,0c0,8.09,4.81,13.52,12,13.52s11.92-5.31,11.92-13.52c0-7.79-5-13.33-11.92-13.33C182.1,12.73,177.24,18.16,177.24,26.06Z"/></g><circle class="cls-8" cx="190.12" cy="73.59" r="43.64"/><circle class="cls-9" cx="184.67" cy="81.23" r="32.73"/><ellipse class="cls-9" cx="173.76" cy="40.86" rx="6.55" ry="4.36"/><text class="cls-10" transform="translate(160.81 98.77) rotate(-13)">34</text></g></g></svg>