<svg xmlns="http://www.w3.org/2000/svg" viewBox="0 0 240 239.99"><defs><style>.cls-1{fill:#fff;opacity:0;}.cls-2{fill:#fad214;}.cls-3{fill:none;stroke:#f5f5f5;stroke-miterlimit:10;stroke-width:14px;}.cls-4{fill:#f5f5f5;}.cls-5{opacity:0.85;}.cls-6{fill:#1a1a1a;}</style></defs><g id="レイヤー_2" data-name="レイヤー 2"><g id="レイヤー_1-2" data-name="レイヤー 1"><rect class="cls-1" width="240" height="239.99"/><rect class="cls-2" x="0.43" y="0.49" width="239.04" height="238.99"/><path class="cls-3" d="M61.6,211a107.77,107.77,0,0,0,137-165.22"/><polygon class="cls-4" points="56.22 224.18 46.14 198.14 73.73 202.43 56.22 224.18"/><path class="cls-3" d="M178.73,28.57A107.77,107.77,0,0,0,41.78,193.79"/><polygon class="cls-4" points="184.11 15.37 194.19 41.41 166.6 37.12 184.11 15.37"/><g class="cls-5"><path class="cls-6" d="M28.28,73.18q-10.39,0-17.06-6.71T4.55,48.21A25.46,25.46,0,0,1,8.06,34.79a22.86,22.86,0,0,1,9.17-8.71,26.61,26.61,0,0,1,12.36-2.91,21.38,21.38,0,0,1,9,1.88,4.31,4.31,0,0,1,2.53,3.52,5.5,5.5,0,0,1,.09,1,5.8,5.8,0,0,1-1.15,3.52l-.33.33q-1.55,2.2-5.24,2.21a17.05,17.05,0,0,1-2.7-.24,5.63,5.63,0,0,0-1.39-.17,9.52,9.52,0,0,0-7.73,3.52q-2.91,3.53-2.91,9.49t2.87,9.38a8.94,8.94,0,0,0,7.28,3.56,9.94,9.94,0,0,0,3.36-.58,7.54,7.54,0,0,1,2.62-.49,10,10,0,0,1,1.8.17,5.08,5.08,0,0,1,3.35,2.45,5.6,5.6,0,0,1,1,3.19,5.28,5.28,0,0,1-.16,1.31,4.76,4.76,0,0,1-2.62,3.52A24.81,24.81,0,0,1,28.28,73.18Z"/><path class="cls-6" d="M59.31,72a7.14,7.14,0,0,1-7.13-7.12V30.45a6,6,0,0,1,1.76-4.33,5.8,5.8,0,0,1,4.3-1.8h.58A6.21,6.21,0,0,1,63,25.87a6.45,6.45,0,0,1,2.21,3.85l.08.49c0,.11.07.16.21.16a.36.36,0,0,0,.28-.08A31.81,31.81,0,0,1,72.49,25a15.38,15.38,0,0,1,7.69-1.84q8.92,0,12.69,7.12a.61.61,0,0,0,.45.37.59.59,0,0,0,.53-.21,33.39,33.39,0,0,1,6.79-5.36,14.92,14.92,0,0,1,7.54-1.92q7.51,0,11.21,5.07t3.68,14.33V64.91A7.12,7.12,0,0,1,116,72h-.65a7.12,7.12,0,0,1-7.12-7.12V44.37c0-3.17-.43-5.36-1.27-6.59a4.75,4.75,0,0,0-4.22-1.84c-2.13,0-4.47,1.23-7,3.68A1.9,1.9,0,0,0,95.08,41v23.9A7.14,7.14,0,0,1,88,72h-.74a7.14,7.14,0,0,1-7.12-7.12V44.37c0-3.17-.43-5.36-1.27-6.59a4.75,4.75,0,0,0-4.22-1.84q-3.18,0-7,3.68A1.9,1.9,0,0,0,67,41v23.9A7.14,7.14,0,0,1,59.88,72Z"/></g><g class="cls-5"><path class="cls-6" d="M170.84,161.35a9,9,0,0,1-6.18-2.13,7,7,0,0,1-2.42-5.48,7.11,7.11,0,0,1,2.42-5.53,8.93,8.93,0,0,1,6.18-2.17,8.69,8.69,0,0,1,6.06,2.17,7.17,7.17,0,0,1,2.37,5.53,7,7,0,0,1-2.37,5.48A8.76,8.76,0,0,1,170.84,161.35Zm-.33,54.34a7.12,7.12,0,0,1-7.12-7.12V175.1a7.14,7.14,0,0,1,7.12-7.12h.57a7.12,7.12,0,0,1,7.12,7.12v33.47a7.1,7.1,0,0,1-7.12,7.12Z"/><path class="cls-6" d="M197.36,215.69a7.12,7.12,0,0,1-7.12-7.12V174.12a6,6,0,0,1,1.76-4.34,5.76,5.76,0,0,1,4.29-1.8H197a6.12,6.12,0,0,1,4.13,1.51,6.37,6.37,0,0,1,2.17,3.89l.08.41c0,.11.07.16.21.16a.4.4,0,0,0,.29-.08q7.2-7,15.14-7,7.53,0,11.17,5.08t3.65,14.32v22.34a7.12,7.12,0,0,1-7.13,7.12H226a7.1,7.1,0,0,1-7.12-7.12V188q0-4.74-1.31-6.59a4.86,4.86,0,0,0-4.26-1.84,8.47,8.47,0,0,0-3.89.86,17.84,17.84,0,0,0-3.8,2.82,1.89,1.89,0,0,0-.58,1.39v23.9a7.1,7.1,0,0,1-7.12,7.12Z"/></g></g></g></svg>